<svg viewBox="0 0 27 22" fill="none" xmlns="http://www.w3.org/2000/svg">
<path fill-rule="evenodd" clip-rule="evenodd" d="M13.5578 5.86656C17.8076 5.86656 21.2527 4.73627 21.2527 3.34197C21.2527 1.94768 17.8076 0.817383 13.5578 0.817383C9.308 0.817383 5.86286 1.94768 5.86286 3.34197C5.86286 4.73627 9.308 5.86656 13.5578 5.86656ZM9.07293 6.4568C5.654 7.00283 3.29789 8.15371 3.29789 9.48514C3.29789 11.3442 7.8914 12.8513 13.5578 12.8513C19.2242 12.8513 23.8177 11.3442 23.8177 9.48514C23.8177 8.15371 21.4616 7.00283 18.0427 6.4568C16.7291 6.77683 15.1956 6.96055 13.5578 6.96055C11.9199 6.96055 10.3865 6.77683 9.07293 6.4568ZM7.51504 13.3467C3.47872 14.0554 0.73291 15.4519 0.73291 17.0589C0.73291 19.3827 6.47481 21.2666 13.5578 21.2666C20.6408 21.2666 26.3827 19.3827 26.3827 17.0589C26.3827 15.4519 23.6369 14.0554 19.6005 13.3467C17.8464 13.7794 15.7757 14.0294 13.5578 14.0294C11.3399 14.0294 9.26923 13.7794 7.51504 13.3467Z" fill="currentColor"/>
</svg>
