<svg width="119" height="16" viewBox="0 0 119 16" fill="none" xmlns="http://www.w3.org/2000/svg">
	<path fill-rule="evenodd" clip-rule="evenodd" d="M90.0386 11.718C88.8206 13.86 86.4266 15.246 83.7176 15.246C79.2446 15.246 76.0316 11.886 76.0316 7.62301C76.0316 3.36 79.2446 0 83.7176 0C86.4056 0 88.7996 1.365 90.0386 3.507L87.9386 4.725C87.1616 3.276 85.5656 2.352 83.7176 2.352C80.5466 2.352 78.4466 4.599 78.4466 7.62301C78.4466 10.647 80.5466 12.894 83.7176 12.894C85.5656 12.894 87.1826 11.97 87.9386 10.521L90.0386 11.718ZM10.7099 10.7729C10.7099 13.2089 8.736 14.9729 6.2999 14.9729H0V0.27295H5.838C8.2109 0.27295 10.143 1.99495 10.143 4.34695C10.143 5.62791 9.576 6.67791 8.652 7.34991C9.891 8.00091 10.7099 9.19791 10.7099 10.7729ZM2.415 6.40501H5.838C6.909 6.40501 7.728 5.56501 7.728 4.47302C7.728 3.38102 6.909 2.54102 5.838 2.54102H2.415V6.40501ZM6.3 12.7051H2.415V8.58911H6.3C7.434 8.58911 8.295 9.49211 8.295 10.6471C8.295 11.8021 7.434 12.7051 6.3 12.7051ZM17.4323 12.0119L16.4033 14.9729H13.7783L19.1123 0.27295H22.0103L27.3233 14.9729H24.7193L23.6903 12.0119H17.4323ZM20.5613 3.10791L22.8923 9.74391H18.2303L20.5613 3.10791ZM39.6316 12.6629V14.9729H31.2316V0.27295H33.6466V12.6629H39.6316ZM45.43 14.9729L46.459 12.0119H52.717L53.7456 14.9729H56.3496L51.037 0.27295H48.139L42.805 14.9729H45.43ZM49.5879 3.10791L47.2569 9.74391H51.9189L49.5879 3.10791ZM62.6736 14.9729V4.99791L69.6036 14.9729H71.4936V0.27295H69.0786V10.2479L62.1486 0.27295H60.2586V14.9729H62.6736ZM103.292 14.9729V12.6629H96.7816V8.69391H102.662V6.40491H96.7816V2.58295H103.187V0.27295H94.3666V14.9729H103.292ZM110.246 9.61791V14.9729H107.831V0.27295H113.711C116.336 0.27295 118.436 2.37295 118.436 4.99791C118.436 6.88791 117.239 8.56791 115.517 9.26091L118.856 14.9729H116.21L113.102 9.61791H110.246ZM113.711 7.45501H110.246V2.54102H113.711C114.992 2.54102 116.021 3.61202 116.021 4.99801C116.021 6.36301 114.992 7.45501 113.711 7.45501Z" fill="white"/>
</svg>
