<svg viewBox="0 0 24 21" fill="currentColor" xmlns="http://www.w3.org/2000/svg">
	<path d="M10.29 2.85996L1.82002 17C1.64539 17.3024 1.55299 17.6453 1.55201 17.9945C1.55103 18.3437 1.64151 18.6871 1.81445 18.9905C1.98738 19.2939 2.23675 19.5467 2.53773 19.7238C2.83871 19.9009 3.18082 19.9961 3.53002 20H20.47C20.8192 19.9961 21.1613 19.9009 21.4623 19.7238C21.7633 19.5467 22.0127 19.2939 22.1856 18.9905C22.3585 18.6871 22.449 18.3437 22.448 17.9945C22.4471 17.6453 22.3547 17.3024 22.18 17L13.71 2.85996C13.5318 2.56607 13.2807 2.32308 12.9812 2.15444C12.6817 1.98581 12.3438 1.89722 12 1.89722C11.6563 1.89722 11.3184 1.98581 11.0188 2.15444C10.7193 2.32308 10.4683 2.56607 10.29 2.85996V2.85996Z" stroke="currentColor" stroke-width="2" stroke-linecap="round" stroke-linejoin="round"/>
</svg>
